<svg xmlns="http://www.w3.org/2000/svg" xmlns:xlink="http://www.w3.org/1999/xlink" width="46" height="38" viewBox="0 0 46 38">
  <defs>
    <style>
      .cls-1 {
        fill: #3d4a99;
        fill-rule: evenodd;
        filter: url(#filter);
      }
    </style>
    <filter id="filter" x="557.188" y="1219.91" width="45.624" height="37.18" filterUnits="userSpaceOnUse">
      <feFlood result="flood" flood-color="#cbcfe3"/>
      <feComposite result="composite" operator="in" in2="SourceGraphic"/>
      <feBlend result="blend" in2="SourceGraphic"/>
    </filter>
  </defs>
  <path id="icon1.svg" class="cls-1" d="M602.146,1255.49a3.65,3.65,0,0,1-5.116.95l-15.112-10.58a3.735,3.735,0,0,1-1.582-3.19,13.292,13.292,0,0,1-17.372,1.87,13.63,13.63,0,0,1-3.389-18.82,13.3,13.3,0,0,1,18.606-3.43,13.657,13.657,0,0,1,4.4,17.08,3.628,3.628,0,0,1,3.519.37l15.116,10.58A3.741,3.741,0,0,1,602.146,1255.49Zm-22.4-23.76a9.4,9.4,0,0,0-3.864-6.07,9.277,9.277,0,0,0-12.976,2.39,9.521,9.521,0,0,0,2.361,13.13,9.268,9.268,0,0,0,12.976-2.39A9.462,9.462,0,0,0,579.742,1231.73Z" transform="translate(-557.188 -1219.91)"/>
</svg>
